<svg aria-hidden="true" style="position: absolute; width: 0; height: 0; overflow: hidden;" version="1.1" xmlns="http://www.w3.org/2000/svg" xmlns:xlink="http://www.w3.org/1999/xlink">
<defs>
<symbol id="icon-Logo1" viewBox="0 0 32 32">
<path d="M11.472 9.057l2.113 2.002h-3.925v9.712h10.264v-3.713l2.113 1.998v-9.998h-10.566zM19.834 16.824l-6.005-5.678h6.005v5.675zM17.968 19.354h-6.684v-6.536h0.474v6.092h6.21v0.444zM12.863 22.068l-0.248 0.507-0.248-0.507h-0.205l0.362 0.679v0.392h0.184v-0.392l0.362-0.679h-0.211zM13.174 23.14l0.085-0.248h0.417l0.091 0.248h0.193l-0.408-1.072h-0.166l-0.408 1.072h0.196zM13.467 22.294l0.157 0.447h-0.311l0.154-0.447zM14.451 22.717c-0.025 0.037-0.039 0.083-0.039 0.132 0 0 0 0.001 0 0.001v-0c0 0.091 0.030 0.166 0.094 0.22 0.063 0.057 0.151 0.085 0.257 0.085s0.196-0.030 0.272-0.085l0.060 0.069h0.211l-0.16-0.184c0.060-0.085 0.091-0.193 0.091-0.326h-0.151c0 0.072-0.018 0.139-0.048 0.196l-0.205-0.241 0.072-0.057c0.051-0.036 0.091-0.072 0.112-0.112 0.021-0.034 0.033-0.076 0.033-0.12 0-0.068-0.029-0.129-0.075-0.172l-0-0c-0.048-0.043-0.112-0.070-0.182-0.070-0.003 0-0.006 0-0.009 0h0c-0.005-0-0.011-0-0.017-0-0.074 0-0.141 0.028-0.191 0.073l0-0c-0.047 0.047-0.076 0.113-0.076 0.185 0 0.005 0 0.010 0 0.015l-0-0.001c0 0.036 0.009 0.072 0.024 0.109s0.045 0.081 0.088 0.133c-0.063 0.042-0.116 0.092-0.159 0.149l-0.001 0.002zM14.934 22.952c-0.046 0.037-0.105 0.060-0.169 0.060h-0c-0.003 0-0.006 0-0.009 0-0.045 0-0.087-0.017-0.118-0.046l0 0c-0.030-0.029-0.048-0.070-0.048-0.115 0-0.002 0-0.004 0-0.006v0c0-0.060 0.030-0.109 0.091-0.154l0.021-0.018 0.232 0.278zM14.744 22.475c-0.051-0.060-0.075-0.112-0.075-0.154 0-0.036 0.009-0.066 0.030-0.091 0.019-0.021 0.047-0.033 0.077-0.033 0.002 0 0.003 0 0.005 0h-0c0.033 0 0.060 0.009 0.082 0.030 0.021 0.018 0.030 0.042 0.030 0.069 0 0.042-0.015 0.078-0.045 0.106l-0.021 0.018-0.082 0.054zM16.489 23.061c0.075-0.066 0.118-0.154 0.127-0.272h-0.184c-0.009 0.078-0.033 0.133-0.069 0.166-0.039 0.033-0.091 0.048-0.166 0.048-0.003 0-0.006 0-0.009 0-0.071 0-0.134-0.036-0.172-0.090l-0-0.001c-0.042-0.060-0.063-0.151-0.063-0.266v-0.094c0-0.115 0.021-0.202 0.066-0.26 0.042-0.060 0.106-0.091 0.187-0.091 0.069 0 0.121 0.018 0.157 0.051s0.060 0.091 0.069 0.166h0.184c-0.005-0.107-0.052-0.203-0.124-0.272l-0-0c-0.071-0.060-0.165-0.097-0.266-0.097-0.007 0-0.014 0-0.022 0.001l0.001-0c-0.091 0-0.166 0.021-0.232 0.060-0.066 0.045-0.121 0.103-0.154 0.181-0.036 0.075-0.054 0.166-0.054 0.266v0.103c0 0.097 0.018 0.184 0.054 0.26s0.085 0.133 0.151 0.172c0.066 0.042 0.142 0.060 0.226 0.060 0.121 0 0.22-0.030 0.293-0.094zM17.585 22.91c0.036-0.081 0.054-0.172 0.054-0.278v-0.060c0-0.106-0.018-0.196-0.054-0.272-0.065-0.147-0.209-0.248-0.377-0.248-0.005 0-0.011 0-0.016 0l0.001-0c-0.085 0-0.163 0.021-0.229 0.063s-0.121 0.106-0.157 0.184c-0.036 0.081-0.057 0.172-0.057 0.278v0.060c0 0.103 0.021 0.193 0.057 0.272s0.091 0.139 0.157 0.181c0.069 0.042 0.148 0.063 0.232 0.063 0.091 0 0.166-0.021 0.235-0.060 0.066-0.045 0.121-0.106 0.154-0.184zM17.386 22.303c0.045 0.060 0.069 0.154 0.069 0.272v0.057c0 0.121-0.024 0.211-0.069 0.275-0.040 0.057-0.105 0.094-0.179 0.094-0.004 0-0.008-0-0.012-0l0.001 0c-0.002 0-0.005 0-0.008 0-0.075 0-0.141-0.037-0.181-0.093l-0-0.001c-0.044-0.070-0.070-0.155-0.070-0.247 0-0.010 0-0.020 0.001-0.029l-0 0.001v-0.060c0-0.118 0.024-0.205 0.069-0.272 0.041-0.055 0.105-0.091 0.178-0.091 0.004 0 0.008 0 0.012 0l-0.001-0c0.081 0 0.145 0.030 0.19 0.091z"></path>
</symbol>
<symbol id="icon-Logo6" viewBox="0 0 32 32">
<path  d="M16.127 15.215c-0.114-0.148-0.183-0.336-0.183-0.541 0-0.020 0.001-0.040 0.002-0.060l-0 0.003v-0.869c0-0.269 0.060-0.471 0.181-0.61s0.332-0.208 0.625-0.205c0.275 0 0.474 0.060 0.589 0.175 0.127 0.151 0.187 0.335 0.175 0.522v0.202h-0.495v-0.205c0-0.069-0.003-0.136-0.015-0.202-0.008-0.049-0.033-0.091-0.069-0.12l-0-0c-0.045-0.031-0.101-0.049-0.16-0.049-0.007 0-0.015 0-0.022 0.001l0.001-0c-0.005-0-0.012-0.001-0.018-0.001-0.063 0-0.122 0.019-0.17 0.053l0.001-0.001c-0.042 0.033-0.072 0.079-0.084 0.131l-0 0.002c-0.012 0.069-0.018 0.142-0.018 0.211v1.057c-0.009 0.106 0.015 0.205 0.063 0.299 0.024 0.030 0.060 0.057 0.1 0.072 0.028 0.011 0.061 0.017 0.095 0.017 0.011 0 0.023-0.001 0.034-0.002l-0.001 0c0.007 0.001 0.015 0.001 0.023 0.001 0.057 0 0.109-0.017 0.153-0.047l-0.001 0.001c0.039-0.032 0.067-0.077 0.075-0.129l0-0.001c0.009-0.069 0.015-0.142 0.015-0.211v-0.217h0.495v0.196c0.012 0.193-0.048 0.386-0.172 0.546-0.115 0.13-0.308 0.193-0.592 0.193-0.287 0-0.501-0.069-0.625-0.211zM18.192 15.227c-0.127-0.136-0.187-0.332-0.187-0.595v-0.915c0-0.26 0.060-0.453 0.187-0.589 0.124-0.133 0.332-0.199 0.628-0.196 0.29 0 0.498 0.063 0.622 0.196 0.127 0.133 0.19 0.329 0.19 0.589v0.915c0 0.26-0.063 0.456-0.19 0.592-0.127 0.139-0.332 0.205-0.622 0.205s-0.504-0.069-0.628-0.202zM19.049 15.007c0.045-0.085 0.066-0.178 0.060-0.272v-1.12c0.006-0.091-0.015-0.181-0.060-0.266-0.026-0.032-0.059-0.057-0.098-0.072l-0.002-0.001c-0.028-0.011-0.061-0.017-0.095-0.017-0.012 0-0.024 0.001-0.036 0.002l0.001-0c-0.011-0.002-0.023-0.002-0.036-0.002-0.035 0-0.068 0.006-0.099 0.018l0.002-0.001c-0.041 0.015-0.076 0.040-0.102 0.072l-0 0c-0.042 0.082-0.063 0.175-0.060 0.266v1.126c-0.003 0.091 0.015 0.187 0.060 0.272 0.062 0.056 0.144 0.090 0.234 0.090 0.045 0 0.088-0.008 0.128-0.024l-0.002 0.001c0.042-0.015 0.075-0.039 0.106-0.066v-0.006zM20.226 12.957h0.534l0.401 1.691 0.411-1.691h0.519l0.051 2.439h-0.383l-0.042-1.694-0.392 1.694h-0.314l-0.411-1.7-0.036 1.7h-0.389l0.048-2.439zM22.741 12.957h0.83c0.48 0 0.718 0.232 0.718 0.694 0 0.441-0.251 0.664-0.755 0.664h-0.284v1.081h-0.513l0.003-2.439zM23.451 14.002c0.051 0.003 0.103 0 0.151-0.012 0.048-0.015 0.094-0.036 0.133-0.066 0.057-0.082 0.085-0.181 0.072-0.275 0-0.075-0.006-0.151-0.024-0.22-0.008-0.027-0.022-0.050-0.039-0.070l0 0c-0.018-0.020-0.039-0.036-0.062-0.048l-0.001-0.001c-0.072-0.030-0.151-0.042-0.229-0.039h-0.199v0.731h0.199zM25.026 12.957h0.552l0.568 2.439h-0.48l-0.112-0.562h-0.492l-0.115 0.562h-0.483l0.565-2.439zM25.5 14.551l-0.193-1.023-0.19 1.026h0.383zM26.602 12.957h0.359l0.685 1.392v-1.389h0.429v2.436h-0.341l-0.691-1.449v1.449h-0.441v-2.439zM29.072 14.466l-0.574-1.506h0.483l0.347 0.966 0.326-0.966h0.471l-0.561 1.509v0.927h-0.495v-0.93zM16.921 16.462v0.127h-0.42v0.993h-0.175v-0.993h-0.423v-0.127h1.017zM18.234 17.582h-0.139c-0.014 0-0.026-0.005-0.036-0.012l0 0c-0.010-0.006-0.018-0.014-0.024-0.024l-0-0-0.121-0.266h-0.58l-0.121 0.266c-0.004 0.012-0.010 0.022-0.018 0.030v0c-0.009 0.006-0.020 0.009-0.032 0.009-0.002 0-0.005-0-0.007-0l0 0h-0.136l0.513-1.117h0.181l0.516 1.114zM17.383 17.165h0.483l-0.205-0.453c-0.013-0.030-0.025-0.066-0.035-0.103l-0.001-0.006-0.021 0.060-0.018 0.048-0.202 0.453zM19.115 17.47h0.097c0.057-0.003 0.111-0.014 0.161-0.031l-0.004 0.001 0.066-0.030v-0.251h-0.202c-0.001 0-0.002 0-0.004 0-0.010 0-0.019-0.003-0.026-0.009l0 0c-0.003-0.003-0.005-0.006-0.006-0.009l-0-0-0.003-0.012v-0.085h0.398v0.429c-0.098 0.061-0.216 0.101-0.341 0.111l-0.003 0c-0.051 0.006-0.1 0.009-0.151 0.009-0.091 0-0.175-0.015-0.26-0.042-0.079-0.028-0.147-0.068-0.206-0.118l0.001 0.001c-0.054-0.048-0.097-0.106-0.128-0.172l-0.001-0.003c-0.033-0.075-0.048-0.154-0.048-0.232-0-0.006-0-0.012-0-0.019 0-0.157 0.070-0.297 0.181-0.391l0.001-0.001c0.054-0.051 0.127-0.091 0.202-0.118 0.080-0.027 0.173-0.043 0.269-0.043 0.052 0 0.104 0.005 0.153 0.014l-0.005-0.001c0.085 0.012 0.161 0.038 0.23 0.074l-0.004-0.002c0.030 0.015 0.060 0.036 0.091 0.057l-0.051 0.069c-0.005 0.007-0.011 0.012-0.018 0.015l-0 0c-0.006 0.003-0.013 0.006-0.021 0.006h-0c-0.011-0.001-0.022-0.004-0.030-0.009l0 0c-0.018-0.006-0.033-0.015-0.051-0.027-0.081-0.040-0.177-0.064-0.279-0.064-0.005 0-0.010 0-0.015 0h0.001c-0.003-0-0.007-0-0.010-0-0.067 0-0.132 0.011-0.193 0.032l0.004-0.001c-0.060 0.021-0.109 0.051-0.151 0.091-0.041 0.037-0.073 0.082-0.096 0.133l-0.001 0.003c-0.045 0.121-0.045 0.254 0 0.374 0.071 0.151 0.222 0.254 0.397 0.254 0.020 0 0.039-0.001 0.058-0.004l-0.002 0zM20.752 17.452h0.558v0.13h-0.731v-1.117h0.175l-0.003 0.987zM21.893 17.582h-0.175v-1.117h0.175v1.117zM22.545 16.468c0.012 0.006 0.021 0.012 0.027 0.021l0.749 0.842v-0.872h0.151v1.123h-0.085c-0.015 0-0.027 0-0.039-0.006-0.011-0.006-0.020-0.013-0.027-0.021l-0-0-0.749-0.845v0.872h-0.148v-1.117h0.121zM24.767 16.462v0.121h-0.622v0.371h0.504v0.121h-0.504v0.38h0.622v0.121h-0.803v-1.114h0.803zM6.388 9.558l7.789 1.908v6.69l-7.789-1.908v-6.69zM5.89 8.984v7.589l8.785 2.155v-7.589l-8.788-2.152z"></path>
<path  d="M10.596 22.249l-8.785-2.162v-7.58l8.785 2.155v7.583z"></path>
<path d="M6.035 9.47l7.686 1.887-3.269 2.82-7.686-1.884 3.269-2.823zM5.89 8.987l-4.079 3.52 8.785 2.155 4.075-3.523-8.785-2.152zM11.091 21.82l3.583-3.094-3.583-0.878v3.973z"></path>
</symbol>
<symbol id="icon-Logo5" viewBox="0 0 32 32">
<path  d="M8.079 20.45c0.072 0.081 0.112 0.187 0.109 0.293 0.006 0.069-0.009 0.139-0.039 0.205-0.030 0.063-0.072 0.121-0.13 0.169-0.145 0.097-0.32 0.145-0.501 0.136h-0.875v-1.872h0.857c0.014-0.001 0.030-0.001 0.047-0.001 0.16 0 0.309 0.048 0.433 0.13l-0.003-0.002c0.054 0.042 0.1 0.097 0.127 0.157 0.030 0.060 0.042 0.127 0.039 0.193 0.006 0.103-0.030 0.202-0.1 0.284-0.066 0.075-0.157 0.127-0.26 0.148 0.115 0.018 0.22 0.075 0.296 0.16zM7.052 20.166h0.362c0.085 0.006 0.169-0.015 0.235-0.060 0.030-0.024 0.048-0.051 0.060-0.085 0.015-0.030 0.021-0.066 0.018-0.1 0.001-0.006 0.001-0.012 0.001-0.019 0-0.029-0.006-0.057-0.016-0.082l0.001 0.001c-0.014-0.032-0.035-0.059-0.060-0.081l-0-0c-0.059-0.040-0.132-0.065-0.211-0.065-0.011 0-0.021 0-0.032 0.001l0.001-0h-0.362v0.489zM7.686 20.885c0.030-0.024 0.051-0.054 0.066-0.088 0.015-0.030 0.021-0.069 0.021-0.103 0-0.003 0-0.007 0-0.012 0-0.034-0.008-0.067-0.022-0.095l0.001 0.001c-0.016-0.035-0.040-0.064-0.069-0.087l-0-0c-0.063-0.042-0.14-0.067-0.223-0.067-0.009 0-0.017 0-0.026 0.001l0.001-0h-0.386v0.513h0.392c0.085 0.006 0.172-0.018 0.242-0.066zM9.832 21.253l-0.474-0.731h-0.181v0.731h-0.411v-1.872h0.779c0.017-0.001 0.036-0.002 0.056-0.002 0.184 0 0.353 0.061 0.49 0.163l-0.002-0.002c0.115 0.103 0.187 0.252 0.187 0.418 0 0.135-0.048 0.259-0.127 0.356l0.001-0.001c-0.1 0.103-0.232 0.169-0.374 0.19l0.507 0.749h-0.447zM9.174 20.266h0.338c0.232 0 0.35-0.091 0.35-0.281 0-0.004 0-0.008 0-0.012 0-0.037-0.008-0.072-0.022-0.104l0.001 0.002c-0.016-0.038-0.038-0.070-0.066-0.096l-0-0c-0.064-0.048-0.144-0.077-0.231-0.077-0.011 0-0.022 0-0.033 0.001l0.001-0h-0.341l0.003 0.568zM12.079 20.875h-0.818l-0.145 0.377h-0.432l0.755-1.851h0.465l0.749 1.851h-0.432l-0.145-0.377zM11.97 20.592l-0.302-0.788-0.299 0.788h0.601zM14.889 21.253h-0.408l-0.915-1.271v1.268h-0.405v-1.866h0.408l0.915 1.277v-1.277h0.408v1.869zM17.217 20.803c-0.085 0.142-0.211 0.257-0.368 0.332-0.178 0.081-0.374 0.121-0.574 0.118h-0.725v-1.872h0.725c0.199-0.003 0.395 0.036 0.574 0.118 0.157 0.072 0.284 0.184 0.368 0.326 0.079 0.141 0.126 0.31 0.126 0.489s-0.047 0.348-0.129 0.494l0.003-0.005zM16.752 20.761c0.115-0.124 0.181-0.284 0.181-0.447s-0.066-0.323-0.181-0.447c-0.126-0.099-0.287-0.159-0.462-0.159-0.018 0-0.036 0.001-0.054 0.002l0.002-0h-0.281v1.208h0.284c0.184 0.012 0.368-0.045 0.51-0.157zM12.335 8.987s5.262 1.817 5.15 4.453v4.453s-5.259-1.82-5.15-4.453v-4.453zM22.177 16.851c0.954-0.605 2.092-1.010 3.314-1.127l0.031-0.002v-1.395c-1.384 0.485-2.529 1.365-3.331 2.502l-0.014 0.021z"></path>
<path  d="M21.579 17.268c0.864-1.523 2.242-2.67 3.893-3.216l0.049-0.014v-4.024s-7.499 2.599-7.339 6.349v6.34s0.332-0.115 0.86-0.332c0-0.205 0-0.408 0.024-0.613 0.187-1.838 1.124-3.426 2.496-4.475l0.016-0.011z"></path>
<path d="M20.866 19.626c0.039-0.438 0.127-0.875 0.263-1.298-0.945 1.004-1.54 2.345-1.588 3.825l-0 0.009c0.426-0.19 0.921-0.423 1.443-0.697-0.133-0.604-0.172-1.223-0.118-1.838zM21.162 19.65c-0.048 0.555-0.015 1.117 0.094 1.66 2.050-1.12 4.35-2.853 4.263-4.951v-0.181c-1.504 0.15-2.845 0.755-3.906 1.674l0.009-0.007c-0.235 0.528-0.397 1.14-0.454 1.783l-0.002 0.022z"></path>
</symbol>
<symbol id="icon-Logo4" viewBox="0 0 32 32">
<path  d="M7.291 13.313c-0.725 0-1.313 0.522-1.313 1.165 0 0.646 0.589 1.165 1.31 1.165 0.725 0 1.313-0.519 1.313-1.165 0-0.643-0.589-1.165-1.31-1.165zM16.966 12.942c-0.003-0.894-0.405-1.751-1.117-2.385-0.707-0.613-1.635-0.987-2.652-0.987-0.009 0-0.018 0-0.028 0h0.001c-1.005 0-1.971 0.356-2.681 0.99-0.674 0.58-1.102 1.43-1.117 2.379l-0 0.003v4.927s7.592-0.752 7.592-4.927zM3.321 19.487c0 0.622 0.281 1.217 0.776 1.657 0.492 0.428 1.139 0.688 1.847 0.688 0.005 0 0.011 0 0.016-0h-0.001c0.7 0 1.371-0.248 1.866-0.688 0.468-0.404 0.766-0.995 0.776-1.656l0-0.002v-3.426s-5.28 0.522-5.28 3.426zM5.959 20.1c-0.136 0-0.272-0.033-0.383-0.103-0.11-0.065-0.197-0.159-0.252-0.271l-0.002-0.004c-0.033-0.069-0.053-0.15-0.053-0.235 0-0.043 0.005-0.085 0.014-0.125l-0.001 0.004c0.027-0.121 0.091-0.226 0.19-0.314 0.096-0.085 0.216-0.145 0.349-0.168l0.004-0.001c0.133-0.021 0.272-0.009 0.399 0.036s0.235 0.124 0.311 0.226c0.072 0.094 0.116 0.214 0.116 0.343 0 0.173-0.077 0.328-0.199 0.432l-0.001 0.001c-0.066 0.060-0.142 0.103-0.226 0.136-0.085 0.030-0.172 0.045-0.266 0.045zM10.786 19.001v1.289h-0.266v-1.289h0.266zM11.3 19.55v0.208h-0.586v-0.208h0.586zM11.36 19.001v0.208h-0.643v-0.208h0.646zM12.574 19.614v0.060c0 0.1-0.015 0.187-0.039 0.266-0.030 0.078-0.066 0.145-0.115 0.199s-0.106 0.097-0.172 0.124c-0.066 0.030-0.142 0.045-0.223 0.045-0.079 0-0.151-0.015-0.22-0.045-0.066-0.030-0.124-0.069-0.172-0.124-0.051-0.054-0.091-0.121-0.115-0.199-0.025-0.075-0.039-0.161-0.039-0.25 0-0.004 0-0.009 0-0.013v0.001-0.060c0-0.1 0.012-0.187 0.039-0.266s0.060-0.145 0.112-0.199c0.048-0.054 0.106-0.097 0.172-0.124 0.069-0.030 0.142-0.045 0.223-0.045s0.154 0.015 0.22 0.045c0.069 0.030 0.127 0.069 0.175 0.124s0.088 0.121 0.112 0.199c0.030 0.078 0.042 0.166 0.042 0.263zM12.305 19.674v-0.060c0-0.069-0.006-0.13-0.018-0.181-0.011-0.049-0.030-0.093-0.055-0.131l0.001 0.001c-0.042-0.066-0.116-0.109-0.199-0.109-0.004 0-0.009 0-0.013 0l0.001-0c-0.003-0-0.006-0-0.009-0-0.083 0-0.156 0.042-0.199 0.105l-0.001 0.001c-0.018 0.036-0.036 0.081-0.051 0.133-0.012 0.051-0.018 0.109-0.018 0.168 0 0.005 0 0.009 0 0.014v-0.001 0.060c0 0.069 0.006 0.13 0.018 0.181 0.015 0.054 0.030 0.097 0.057 0.133 0.024 0.036 0.051 0.060 0.088 0.081 0.033 0.018 0.075 0.027 0.121 0.027 0.042 0 0.082-0.009 0.118-0.030 0.036-0.019 0.065-0.046 0.087-0.078l0.001-0.001c0.024-0.036 0.042-0.078 0.054-0.133 0.012-0.051 0.018-0.112 0.018-0.181zM13.434 19.952c0-0.002 0-0.003 0-0.005 0-0.020-0.003-0.039-0.009-0.057l0 0.001c-0.008-0.021-0.022-0.038-0.039-0.051l-0-0c-0.022-0.019-0.047-0.035-0.073-0.047l-0.002-0.001c-0.035-0.016-0.078-0.033-0.122-0.046l-0.008-0.002-0.166-0.060c-0.052-0.025-0.096-0.053-0.137-0.086l0.001 0.001c-0.039-0.030-0.072-0.069-0.094-0.112-0.023-0.041-0.036-0.091-0.036-0.143 0-0.001 0-0.001 0-0.002v0c0-0 0-0.001 0-0.002 0-0.053 0.013-0.102 0.037-0.145l-0.001 0.002c0.024-0.045 0.057-0.085 0.1-0.115s0.091-0.057 0.151-0.072c0.056-0.016 0.119-0.026 0.185-0.026 0.092 0 0.18 0.018 0.26 0.052l-0.005-0.002c0.069 0.036 0.124 0.081 0.163 0.142s0.060 0.127 0.060 0.205h-0.266c0-0.003 0-0.006 0-0.010 0-0.033-0.008-0.064-0.022-0.091l0.001 0.001c-0.017-0.030-0.041-0.054-0.072-0.069l-0.001-0c-0.032-0.015-0.069-0.024-0.109-0.024-0.004 0-0.008 0-0.013 0l0.001-0c-0.002-0-0.004-0-0.006-0-0.038 0-0.074 0.008-0.107 0.022l0.002-0.001c-0.029 0.011-0.052 0.030-0.069 0.054l-0 0c-0.015 0.022-0.024 0.048-0.024 0.077 0 0 0 0.001 0 0.001v-0c0 0.021 0.006 0.042 0.018 0.060 0.009 0.018 0.027 0.033 0.048 0.048l0.082 0.045 0.109 0.039c0.069 0.021 0.133 0.045 0.184 0.072 0.054 0.024 0.1 0.054 0.136 0.091 0.067 0.061 0.109 0.148 0.109 0.246 0 0.002 0 0.003-0 0.005v-0c0 0.057-0.012 0.109-0.030 0.151-0.024 0.045-0.054 0.081-0.097 0.115-0.042 0.030-0.091 0.051-0.151 0.069-0.054 0.015-0.116 0.023-0.179 0.023-0.136 0-0.262-0.038-0.37-0.103l0.003 0.002c-0.101-0.069-0.166-0.183-0.166-0.313 0-0.003 0-0.005 0-0.008v0h0.266c0 0.039 0.006 0.075 0.021 0.103 0.012 0.027 0.030 0.048 0.051 0.066s0.048 0.030 0.082 0.036c0.030 0.009 0.066 0.012 0.103 0.012 0.048 0 0.085-0.006 0.115-0.018 0.053-0.020 0.091-0.071 0.091-0.13 0-0.001 0-0.002-0-0.003v0zM14.457 19.001v1.289h-0.269v-1.289h0.266zM14.85 19.001v0.208h-1.048v-0.208h1.051zM15.867 20.081v0.208h-0.682v-0.208h0.685zM15.269 19.001v1.289h-0.266v-1.289h0.266zM15.78 19.526v0.202h-0.598v-0.202h0.598zM15.867 19.001v0.208h-0.685v-0.208h0.685zM16.021 19.001h0.483c0.097 0 0.181 0.015 0.254 0.045 0.069 0.030 0.124 0.072 0.163 0.13 0.039 0.060 0.060 0.13 0.060 0.211 0 0.072-0.015 0.13-0.039 0.181-0.021 0.048-0.054 0.091-0.097 0.121-0.042 0.033-0.091 0.060-0.151 0.078l-0.081 0.045h-0.417v-0.208h0.308c0.003 0 0.006 0 0.009 0 0.038 0 0.075-0.009 0.107-0.025l-0.001 0.001c0.030-0.015 0.054-0.039 0.069-0.069 0.015-0.028 0.024-0.062 0.024-0.098 0-0.002-0-0.003-0-0.005v0c0-0.003 0-0.006 0-0.008 0-0.035-0.008-0.069-0.022-0.099l0.001 0.001c-0.016-0.031-0.041-0.055-0.072-0.069l-0.001-0c-0.032-0.015-0.069-0.024-0.109-0.024-0.003 0-0.006 0-0.009 0h-0.211v1.081h-0.269v-1.289zM16.743 20.29l-0.293-0.574 0.278-0.003 0.299 0.565v0.012h-0.284zM18.134 19.831h-0.323v-0.208h0.326c0.051 0 0.091-0.009 0.124-0.024 0.030-0.018 0.057-0.042 0.069-0.072 0.015-0.030 0.024-0.060 0.024-0.1s-0.009-0.077-0.025-0.11l0.001 0.002c-0.015-0.033-0.039-0.060-0.069-0.078l-0.001-0c-0.033-0.019-0.072-0.030-0.114-0.030-0.002 0-0.005 0-0.007 0h-0.238v1.081h-0.266v-1.289h0.501c0.103 0 0.187 0.018 0.26 0.054 0.133 0.065 0.224 0.199 0.224 0.354 0 0.005-0 0.010-0 0.015l0-0.001c0 0.085-0.018 0.157-0.057 0.217-0.036 0.060-0.091 0.106-0.166 0.139-0.072 0.033-0.157 0.051-0.26 0.051zM19.665 20.081v0.208h-0.685v-0.208h0.685zM19.067 19.001v1.289h-0.266v-1.289h0.266zM19.577 19.526v0.202h-0.598v-0.202h0.598zM19.665 19.001v0.208h-0.685v-0.208h0.685zM20.414 19.001v1.289h-0.266v-1.289h0.266zM20.809 19.001v0.208h-1.051v-0.208h1.051zM21.826 20.081v0.208h-0.685v-0.208h0.685zM21.226 19.001v1.289h-0.266v-1.289h0.266zM21.736 19.526v0.202h-0.595v-0.202h0.595zM21.826 19.001v0.208h-0.685v-0.208h0.682zM21.977 19.001h0.483c0.1 0 0.181 0.015 0.254 0.045s0.127 0.072 0.163 0.13c0.039 0.060 0.060 0.13 0.060 0.211 0 0.072-0.012 0.13-0.036 0.181-0.024 0.048-0.057 0.091-0.1 0.121-0.042 0.033-0.091 0.060-0.148 0.078l-0.081 0.045h-0.42v-0.208h0.311c0.003 0 0.006 0 0.009 0 0.038 0 0.075-0.009 0.107-0.025l-0.001 0.001c0.030-0.015 0.054-0.039 0.069-0.069 0.015-0.028 0.024-0.062 0.024-0.098 0-0.002-0-0.003-0-0.005v0c0-0.001 0-0.002 0-0.002 0-0.038-0.009-0.073-0.025-0.105l0.001 0.001c-0.015-0.030-0.039-0.054-0.069-0.069l-0.001-0c-0.032-0.015-0.070-0.024-0.109-0.024-0.004 0-0.008 0-0.012 0l0.001-0h-0.211v1.081h-0.266v-1.289zM22.702 20.29l-0.296-0.574 0.281-0.003 0.296 0.565v0.012h-0.284zM23.81 19.952c0-0.002 0-0.003 0-0.005 0-0.020-0.003-0.039-0.009-0.057l0 0.001c-0.008-0.021-0.022-0.038-0.039-0.051l-0-0c-0.022-0.019-0.047-0.035-0.073-0.047l-0.002-0.001c-0.035-0.016-0.078-0.033-0.122-0.046l-0.008-0.002-0.166-0.060c-0.052-0.025-0.096-0.053-0.137-0.086l0.001 0.001c-0.039-0.030-0.072-0.069-0.094-0.112-0.021-0.040-0.033-0.087-0.033-0.138 0-0.003 0-0.005 0-0.007v0c-0-0.002-0-0.005-0-0.007 0-0.050 0.012-0.098 0.034-0.139l-0.001 0.002c0.024-0.045 0.057-0.085 0.1-0.115s0.091-0.057 0.151-0.072c0.055-0.016 0.119-0.026 0.185-0.026 0.092 0 0.18 0.018 0.26 0.052l-0.005-0.002c0.069 0.036 0.124 0.081 0.163 0.142s0.060 0.127 0.060 0.205h-0.263c0-0.001 0-0.003 0-0.004 0-0.035-0.009-0.068-0.025-0.096l0.001 0.001c-0.017-0.030-0.041-0.054-0.072-0.069l-0.001-0c-0.032-0.015-0.069-0.024-0.108-0.024-0.003 0-0.007 0-0.010 0h0c-0.003-0-0.006-0-0.009-0-0.038 0-0.074 0.008-0.107 0.022l0.002-0.001c-0.029 0.011-0.052 0.030-0.069 0.054l-0 0c-0.015 0.022-0.024 0.048-0.024 0.077 0 0 0 0.001 0 0.001v-0c0 0.021 0.006 0.042 0.018 0.060 0.009 0.018 0.027 0.033 0.048 0.048l0.081 0.045 0.109 0.039c0.072 0.021 0.133 0.045 0.187 0.072 0.051 0.024 0.097 0.054 0.133 0.091 0.067 0.061 0.109 0.148 0.109 0.246 0 0.002 0 0.003-0 0.005v-0c0 0.057-0.009 0.109-0.030 0.151-0.024 0.045-0.054 0.081-0.097 0.115-0.042 0.030-0.091 0.051-0.148 0.069-0.054 0.015-0.117 0.023-0.181 0.023-0.136 0-0.263-0.038-0.371-0.104l0.003 0.002c-0.101-0.069-0.166-0.183-0.166-0.313 0-0.003 0-0.005 0-0.008v0h0.269c0 0.039 0.006 0.075 0.018 0.103s0.030 0.048 0.051 0.066c0.024 0.018 0.051 0.030 0.081 0.036 0.030 0.009 0.066 0.012 0.103 0.012 0.048 0 0.085-0.006 0.115-0.018 0.053-0.020 0.091-0.071 0.091-0.13 0-0.001 0-0.002-0-0.003v0z"></path>
</symbol>
<symbol id="icon-Logo3" viewBox="0 0 32 32">
<path  d="M10.989 21.766l0.015 0.003 0.012 0.006 0.066 0.063c-0.051 0.051-0.115 0.091-0.184 0.121-0.085 0.030-0.175 0.045-0.263 0.042-0.085 0-0.169-0.012-0.248-0.039-0.139-0.048-0.249-0.152-0.304-0.283l-0.001-0.003c-0.029-0.066-0.045-0.144-0.045-0.225s0.017-0.159 0.047-0.229l-0.001 0.004c0.030-0.063 0.072-0.124 0.13-0.175 0.054-0.048 0.121-0.088 0.196-0.112 0.076-0.027 0.164-0.043 0.255-0.043 0.085 0 0.166 0.014 0.242 0.039l-0.005-0.002c0.063 0.024 0.124 0.060 0.175 0.103l-0.054 0.066c-0.004 0.005-0.009 0.009-0.015 0.012l-0 0c-0.006 0.004-0.013 0.006-0.021 0.006-0 0-0 0-0 0v0c-0.009-0.001-0.017-0.004-0.024-0.009l0 0-0.030-0.018-0.039-0.021c-0.061-0.031-0.132-0.049-0.208-0.049-0.008 0-0.015 0-0.022 0.001l0.001-0c-0.060 0-0.124 0.009-0.181 0.030-0.107 0.037-0.192 0.116-0.235 0.218l-0.001 0.003c-0.023 0.052-0.036 0.112-0.036 0.175v0c0 0.060 0.012 0.124 0.033 0.181 0.041 0.103 0.124 0.181 0.227 0.217l0.003 0.001c0.054 0.018 0.112 0.030 0.169 0.030l0.1-0.006c0.084-0.009 0.159-0.043 0.218-0.094l-0.001 0c0.008-0.007 0.019-0.011 0.030-0.012h0zM12.891 21.449c0 0.078-0.012 0.151-0.042 0.223-0.030 0.063-0.069 0.121-0.124 0.172-0.057 0.051-0.121 0.091-0.196 0.115-0.16 0.054-0.338 0.054-0.501 0-0.075-0.027-0.139-0.066-0.194-0.115l0.001 0c-0.052-0.048-0.094-0.106-0.123-0.172l-0.001-0.003c-0.060-0.142-0.060-0.302 0-0.444 0.030-0.066 0.069-0.124 0.124-0.175 0.057-0.048 0.121-0.085 0.193-0.112 0.075-0.026 0.161-0.041 0.251-0.041s0.176 0.015 0.256 0.043l-0.006-0.002c0.072 0.027 0.139 0.066 0.196 0.115 0.102 0.094 0.166 0.229 0.166 0.378 0 0.006-0 0.012-0 0.018l0-0.001zM12.719 21.449c0-0.060-0.009-0.121-0.030-0.178-0.040-0.103-0.122-0.181-0.224-0.217l-0.003-0.001c-0.054-0.018-0.116-0.029-0.181-0.029s-0.127 0.011-0.185 0.030l0.004-0.001c-0.055 0.019-0.102 0.048-0.142 0.085l0-0c-0.039 0.036-0.070 0.081-0.090 0.13l-0.001 0.002c-0.039 0.118-0.039 0.241 0 0.359 0.040 0.104 0.123 0.183 0.227 0.217l0.003 0.001c0.118 0.036 0.248 0.036 0.362 0 0.054-0.021 0.103-0.048 0.142-0.085 0.039-0.039 0.069-0.085 0.088-0.133 0.021-0.060 0.030-0.121 0.030-0.181zM14.189 21.636l0.018 0.042 0.018-0.042 0.021-0.039 0.423-0.664c0.006-0.009 0.015-0.018 0.021-0.018 0.011-0.004 0.023-0.006 0.036-0.006v0h0.124v1.081h-0.148v-0.863l-0.423 0.673c-0.006 0.010-0.014 0.018-0.024 0.024l-0 0c-0.010 0.006-0.023 0.009-0.036 0.009-0 0-0 0-0 0h-0.024c-0 0-0.001 0-0.001 0-0.013 0-0.025-0.003-0.035-0.009l0 0c-0.010-0.006-0.018-0.014-0.024-0.024l-0-0-0.435-0.679v0.869h-0.145v-1.081h0.127c0.009 0 0.021 0 0.033 0.006 0.009 0.003 0.018 0.009 0.024 0.018l0.429 0.664 0.021 0.039zM15.771 21.585v0.405h-0.163v-1.081h0.365c0.069 0 0.139 0.009 0.205 0.024 0.054 0.012 0.103 0.036 0.145 0.066 0.036 0.030 0.066 0.066 0.085 0.106 0.018 0.045 0.030 0.091 0.027 0.139 0 0.001 0 0.002 0 0.003 0 0.098-0.047 0.186-0.12 0.241l-0.001 0.001c-0.042 0.033-0.091 0.060-0.145 0.072-0.058 0.017-0.124 0.027-0.192 0.027-0.002 0-0.005 0-0.007-0h0l-0.199-0.003zM15.771 21.467h0.199c0.045 0 0.088-0.003 0.13-0.015 0.035-0.011 0.065-0.028 0.091-0.049l-0.001 0c0.046-0.038 0.076-0.096 0.076-0.16 0-0.001 0-0.002-0-0.003v0c0-0.003 0-0.007 0-0.011 0-0.026-0.006-0.052-0.016-0.074l0 0.001c-0.014-0.030-0.035-0.055-0.060-0.075l-0-0c-0.060-0.042-0.139-0.060-0.22-0.057h-0.199v0.444zM17.983 21.989h-0.13c-0.001 0-0.003 0-0.004 0-0.012 0-0.023-0.003-0.032-0.009l0 0c-0.009-0.006-0.016-0.014-0.021-0.024l-0-0-0.112-0.263h-0.561l-0.118 0.263c-0.009 0.022-0.031 0.036-0.055 0.036-0.002 0-0.003-0-0.005-0h-0.127l0.495-1.084h0.172l0.498 1.081zM17.168 21.588h0.465l-0.196-0.438c-0.013-0.028-0.025-0.062-0.035-0.098l-0.001-0.005-0.018 0.057-0.018 0.045-0.196 0.438zM18.696 20.915l0.024 0.018 0.721 0.815v-0.839h0.145v1.081h-0.081c-0.012 0-0.024 0-0.033-0.006-0.011-0.005-0.020-0.013-0.027-0.021l-0-0-0.718-0.815v0.842h-0.148v-1.081h0.091c0.006 0 0.018 0 0.027 0.006zM20.8 21.561v0.429h-0.163v-0.429l-0.456-0.652h0.148c0.001-0 0.003-0 0.004-0 0.012 0 0.023 0.003 0.032 0.009l-0-0 0.021 0.024 0.284 0.423c0.018 0.027 0.035 0.057 0.050 0.090l0.002 0.004 0.021-0.045 0.030-0.048 0.278-0.423c0.006-0.009 0.013-0.017 0.021-0.024l0-0c0.009-0.008 0.021-0.012 0.034-0.012 0.001 0 0.001 0 0.002 0h0.151l-0.459 0.655zM14.107 19.097l0.217 0.018c1.102-0.423 2.018-1.123 2.691-2.016l0.011-0.015c0.6-0.8 0.961-1.809 0.961-2.902 0-0.030-0-0.061-0.001-0.091l0 0.005-1.226-1.063c0.251 1.126 0.133 2.288-0.335 3.36-0.514 1.122-1.308 2.041-2.295 2.69l-0.024 0.015z"></path>
<path  d="M13.669 19.049l0.033 0.003c1.117-0.694 1.971-1.663 2.445-2.786 0.27-0.611 0.428-1.323 0.428-2.072 0-0.508-0.072-0.999-0.208-1.464l0.009 0.037-1.745-1.512c0.544 0.93 0.865 2.047 0.865 3.239 0 0.274-0.017 0.543-0.050 0.808l0.003-0.032c-0.199 1.474-0.841 2.77-1.785 3.781l0.004-0.004zM19.583 15.345c-0.339 1.232-1.066 2.261-2.038 2.975l-0.015 0.011c-0.302 0.229-0.628 0.432-0.972 0.607 0.842-0.214 1.618-0.595 2.264-1.111 0.624-0.495 1.122-1.122 1.454-1.841l0.013-0.031-0.706-0.61z"></path>
<path  d="M19.306 15.173l-1.008-0.875c-0.027 1.062-0.377 2.038-0.955 2.837l0.010-0.015c-0.63 0.868-1.46 1.554-2.425 1.998l-0.038 0.016h0.006c0.226 0 0.453-0.012 0.676-0.033 0.958-0.338 1.774-0.87 2.435-1.553l0.002-0.002c0.619-0.64 1.072-1.443 1.291-2.338l0.007-0.035zM13.817 10.614l-1.201-1.045c-1.072 0.353-1.973 0.984-2.646 1.807l-0.008 0.010c-0.616 0.76-0.993 1.736-1.002 2.799v0.002c0.016 1.179 0.476 2.248 1.219 3.049l-0.003-0.003c0.809 0.87 1.873 1.493 3.074 1.747l0.038 0.007c1.042-1.074 1.722-2.503 1.84-4.090l0.001-0.022c0.007-0.109 0.010-0.235 0.010-0.363 0-1.474-0.498-2.832-1.335-3.914l0.011 0.015zM22.080 15.013c-0.003-1.313-0.604-2.566-1.672-3.496-1.067-0.903-2.458-1.452-3.978-1.452-0.015 0-0.031 0-0.046 0h0.002c-0.697 0-1.389 0.112-2.041 0.332l7.354 6.385c0.239-0.52 0.379-1.128 0.38-1.769v-0z"></path>
</symbol>
<symbol id="icon-Logo2" viewBox="0 0 32 32">
<path d="M15.128 8.734h-0.039l-0.19-0.006h-0.139c-0.009-0-0.019-0-0.030-0-0.128 0-0.255 0.003-0.381 0.010l0.018-0.001c-1.099 0.060-2.174 0.338-3.173 0.809l-0.13 0.063v6.684l0.305-0.103c0.979-0.352 2.108-0.562 3.284-0.577l0.006-0v0.878l-0.32 0.009h-0.024c-1.522 0.085-2.929 0.505-4.171 1.188l0.051-0.026v-8.577c0.677-0.402 1.46-0.729 2.29-0.941l0.062-0.013c0.663-0.178 1.425-0.281 2.211-0.284h0.131c0.551 0.002 1.084 0.073 1.593 0.206l-0.044-0.010v0.866c-0.308-0.076-0.673-0.134-1.046-0.162l-0.023-0.001h-0.021c-0.075-0.006-0.151-0.015-0.22-0.015zM16.649 9.618c0.171 0.011 0.37 0.017 0.571 0.017 0.834 0 1.644-0.108 2.415-0.31l-0.066 0.015c0.851-0.217 1.596-0.515 2.29-0.897l-0.050 0.025v8.42c-0.677 0.402-1.46 0.73-2.289 0.943l-0.062 0.014c-0.725 0.184-1.467 0.281-2.213 0.284-0.015 0-0.033 0-0.051 0-0.579 0-1.141-0.073-1.677-0.21l0.047 0.010v-8.474c0.313 0.077 0.685 0.134 1.064 0.162l0.022 0.001zM20.936 9.685l-0.305 0.103c-1.014 0.365-2.184 0.576-3.403 0.576-0.191 0-0.381-0.005-0.569-0.015l0.026 0.001-0.248-0.015v6.874l0.211 0.018c0.175 0.013 0.378 0.021 0.584 0.021 0.715 0 1.408-0.092 2.069-0.266l-0.057 0.013c0.598-0.154 1.116-0.347 1.607-0.586l-0.050 0.022 0.133-0.060v-6.684z"></path>
<path d="M10.789 20.592c-0.082-0.084-0.197-0.136-0.324-0.136-0.006 0-0.012 0-0.018 0l0.001-0c-0.066 0-0.133 0.012-0.196 0.036-0.17 0.068-0.287 0.231-0.287 0.421 0 0.008 0 0.016 0.001 0.023l-0-0.001v1.147c0 0.078 0.012 0.16 0.045 0.232 0.030 0.060 0.066 0.112 0.115 0.154 0.045 0.039 0.1 0.066 0.157 0.081s0.115 0.024 0.172 0.024c0.263-0.005 0.474-0.219 0.474-0.483 0-0 0-0 0-0v0-0.127h-0.302v0.1c0.003 0.036 0 0.072-0.015 0.103-0.010 0.026-0.024 0.048-0.042 0.066v0c-0.034 0.026-0.077 0.042-0.124 0.042h-0c-0.006 0.001-0.013 0.001-0.020 0.001-0.050 0-0.094-0.024-0.121-0.061l-0-0c-0.027-0.041-0.042-0.092-0.042-0.146 0-0.003 0-0.006 0-0.009v0-1.069c0-0.060 0.012-0.118 0.039-0.169 0.027-0.043 0.074-0.070 0.128-0.070 0.006 0 0.012 0 0.018 0.001l-0.001-0c0.002-0 0.003-0 0.005-0 0.052 0 0.098 0.025 0.127 0.063l0 0c0.032 0.041 0.051 0.092 0.051 0.149 0 0.001 0 0.001 0 0.002v-0 0.103h0.296v-0.118c0-0.001 0-0.003 0-0.004 0-0.138-0.052-0.263-0.136-0.359l0 0.001zM12.568 20.58c-0.092-0.077-0.212-0.124-0.342-0.124-0.063 0-0.124 0.011-0.181 0.031l0.004-0.001c-0.060 0.021-0.112 0.051-0.157 0.091-0.051 0.048-0.091 0.103-0.118 0.163-0.030 0.069-0.045 0.145-0.042 0.223v1.096c-0.003 0.078 0.012 0.154 0.042 0.226 0.027 0.060 0.066 0.112 0.118 0.151 0.045 0.045 0.097 0.078 0.157 0.1 0.053 0.020 0.114 0.031 0.178 0.031s0.125-0.011 0.182-0.032l-0.004 0.001c0.186-0.064 0.318-0.238 0.318-0.443 0-0.011-0-0.022-0.001-0.032l0 0.001v-1.099c0-0.006 0-0.014 0-0.021 0-0.143-0.060-0.271-0.157-0.362l-0-0zM12.429 22.059c0 0.005 0.001 0.011 0.001 0.016 0 0.056-0.023 0.107-0.061 0.143l-0 0c-0.038 0.031-0.087 0.050-0.14 0.050s-0.103-0.019-0.141-0.051l0 0c-0.038-0.036-0.061-0.086-0.061-0.142 0-0.006 0-0.012 0.001-0.018l-0 0.001v-1.096c-0.001-0.005-0.001-0.011-0.001-0.018 0-0.056 0.023-0.107 0.061-0.142l0-0c0.038-0.031 0.087-0.050 0.14-0.050s0.103 0.019 0.141 0.051l-0-0c0.038 0.036 0.061 0.086 0.061 0.142 0 0.006-0 0.012-0.001 0.018l0-0.001v1.096zM14.904 22.551v-2.083h-0.29l-0.377 1.102h-0.006l-0.38-1.102h-0.284v2.080h0.296v-1.268h0.006l0.29 0.897h0.151l0.293-0.894h0.003v1.265h0.299zM16.592 20.619c-0.045-0.054-0.103-0.091-0.169-0.115-0.062-0.021-0.133-0.033-0.207-0.033-0.003 0-0.005 0-0.008 0h-0.44v2.080h0.296v-0.815h0.151c0.094 0.006 0.184-0.012 0.269-0.054 0.12-0.075 0.204-0.196 0.229-0.338l0-0.003c0.012-0.070 0.018-0.15 0.018-0.233 0-0.106-0.011-0.209-0.032-0.308l0.002 0.010c-0.021-0.076-0.058-0.141-0.109-0.193l0 0zM16.441 21.253c-0.003 0.036-0.012 0.072-0.030 0.106-0.018 0.030-0.042 0.060-0.075 0.072-0.038 0.019-0.084 0.030-0.132 0.030-0.003 0-0.005-0-0.007-0h-0.135v-0.709h0.151c0.048 0 0.091 0.006 0.136 0.027 0.030 0.015 0.054 0.042 0.069 0.075s0.024 0.073 0.024 0.115v0.284zM17.992 20.471h-0.241l-0.453 2.080h0.296l0.088-0.447h0.401l0.091 0.447h0.293l-0.468-2.080zM17.721 21.82l0.148-0.755h0.003l0.145 0.755h-0.296zM19.909 21.724h-0.006l-0.447-1.253h-0.284v2.080h0.296v-1.25h0.006l0.45 1.25h0.278v-2.083h-0.296v1.253zM21.721 20.471l-0.241 0.827h-0.003l-0.241-0.827h-0.311l0.408 1.201v0.875h0.296v-0.875l0.408-1.201h-0.314zM9.962 23.137h0.142v0.401h0.097v-0.401h0.142v-0.081h-0.38v0.081zM11.164 23.055l-0.187 0.483h0.103l0.039-0.109h0.193l0.039 0.109h0.106l-0.19-0.483h-0.103zM11.149 23.348l0.063-0.181 0.066 0.181h-0.13zM12.347 23.36h0.115v0.060c-0.031 0.026-0.071 0.042-0.115 0.042h-0c-0.002 0-0.005 0-0.008 0-0.038 0-0.072-0.018-0.094-0.045l-0-0c-0.023-0.032-0.037-0.073-0.037-0.116 0-0.004 0-0.008 0-0.011l-0 0.001c0-0.106 0.045-0.16 0.139-0.16 0.003-0 0.006-0 0.010-0 0.047 0 0.087 0.032 0.099 0.075l0 0.001 0.097-0.018c-0.021-0.094-0.091-0.142-0.205-0.142-0.003-0-0.006-0-0.009-0-0.061 0-0.118 0.023-0.16 0.061l0-0c-0.043 0.043-0.070 0.102-0.070 0.168 0 0.007 0 0.014 0.001 0.020l-0-0.001c0 0.066 0.018 0.133 0.060 0.181 0.043 0.045 0.103 0.073 0.17 0.073 0.005 0 0.010-0 0.014-0l-0.001 0c0.075 0 0.151-0.027 0.205-0.078v-0.19h-0.211v0.081zM13.561 23.055h-0.097v0.483h0.338v-0.081h-0.242v-0.401zM14.587 23.055h-0.1v0.483h0.1v-0.483zM15.589 23.378l-0.199-0.323h-0.094v0.483h0.091v-0.314l0.193 0.314h0.097v-0.483h-0.091v0.323zM16.495 23.327h0.241v-0.081h-0.241v-0.109h0.257v-0.081h-0.356v0.483h0.368v-0.081h-0.272v-0.13zM18.69 23.245h-0.19v-0.19h-0.097v0.483h0.097v-0.211h0.19v0.211h0.097v-0.483h-0.097v0.19zM19.602 23.327h0.241v-0.081h-0.241v-0.109h0.26v-0.081h-0.356v0.483h0.365v-0.081h-0.269v-0.13zM20.836 23.327c0.085-0.015 0.127-0.060 0.127-0.136 0.001-0.004 0.001-0.009 0.001-0.014 0-0.038-0.018-0.071-0.046-0.092l-0-0c-0.036-0.019-0.080-0.031-0.125-0.031-0.006 0-0.012 0-0.017 0.001l0.001-0h-0.205v0.483h0.097v-0.202h0.018c0.021 0 0.042 0.003 0.060 0.012 0.015 0.009 0.030 0.021 0.036 0.036l0.106 0.151h0.115l-0.060-0.091c-0.024-0.048-0.060-0.091-0.106-0.121zM20.74 23.26h-0.072v-0.121h0.075c0.033-0.003 0.069 0 0.1 0.009 0.015 0.011 0.025 0.029 0.025 0.049 0 0.021-0.011 0.040-0.028 0.051l-0 0c-0.025 0.008-0.053 0.013-0.082 0.013-0.006 0-0.012-0-0.018-0.001l0.001 0zM21.769 23.327h0.241v-0.081h-0.241v-0.109h0.26v-0.081h-0.356v0.483h0.365v-0.081h-0.269v-0.13z"></path>
</symbol>
<symbol id="icon-astronaut" viewBox="0 0 32 32">
<path fill="#2196f3" style="fill: var(--color2, #2196f3)" d="M31.973 4.526c-0.059-0.192-0.229-0.334-0.43-0.366l-1.911-0.274-0.855-1.737c-0.178-0.361-0.777-0.361-0.955 0l-0.85 1.737-1.911 0.274c-0.262 0.038-0.46 0.261-0.46 0.53 0 0.151 0.063 0.287 0.163 0.385l0 0 1.385 1.344-0.325 1.902c-0.005 0.026-0.007 0.056-0.007 0.087 0 0.295 0.239 0.535 0.535 0.535 0.089 0 0.174-0.022 0.248-0.061l-0.003 0.001 1.71-0.896 1.705 0.896c0.072 0.039 0.158 0.062 0.25 0.062 0.295 0 0.535-0.239 0.535-0.535 0-0.032-0.003-0.063-0.008-0.093l0 0.003-0.329-1.902 1.385-1.349c0.146-0.137 0.197-0.352 0.137-0.549zM29.513 5.851c-0.128 0.123-0.183 0.297-0.155 0.471l0.192 1.115-1.001-0.526c-0.072-0.039-0.158-0.062-0.249-0.062s-0.177 0.023-0.252 0.064l0.003-0.001-1.001 0.526 0.192-1.115c0.032-0.174-0.027-0.347-0.151-0.471l-0.814-0.791 1.12-0.16c0.174-0.027 0.325-0.137 0.402-0.293l0.503-1.015 0.498 1.015c0.078 0.155 0.229 0.265 0.402 0.293l1.12 0.16-0.809 0.791zM26.135 20.526h-1.070v1.065h1.070v-1.070zM26.135 22.656h-1.070v1.065h1.070v-1.065zM27.2 21.591h-1.065v1.065h1.065v-1.065zM25.065 21.591h-1.065v1.065h1.065v-1.065zM22.4 26.391h-1.065v1.065h1.065v-1.065zM22.4 28.526h-1.065v1.065h1.065v-1.070zM23.465 27.456h-1.065v1.065h1.065v-1.065zM21.335 27.456h-1.070v1.065h1.070v-1.065zM16 24.256h-1.065v1.065h1.065v-1.065zM16 26.391h-1.065v1.065h1.065v-1.065zM17.065 25.326h-1.065v1.065h1.065v-1.070zM14.935 25.326h-1.070v1.065h1.070v-1.070zM5.865 6.126h-1.065v1.065h1.065v-1.070zM5.865 8.256h-1.065v1.065h1.065v-1.065zM6.935 7.191h-1.070v1.065h1.070v-1.065zM4.8 7.191h-1.065v1.065h1.065v-1.065z"></path>
<path fill="#212121" style="fill: var(--color3, #212121)" d="M24.713 14.158c-0.28-0.376-0.699-0.636-1.179-0.703l-0.009-0.001c-0.076-0.012-0.164-0.018-0.253-0.018-0.411 0-0.789 0.139-1.090 0.373l0.004-0.003-1.248 0.96-1.902 1.417-1.358-0.539c2.423-1.088 4.114-3.506 4.114-6.322 0-3.822-3.122-6.93-6.962-6.93s-6.958 3.109-6.958 6.93c0 1.39 0.411 2.674 1.12 3.762l-2.77-0.027-0.023 0.005c-0.055 0-0.105 0.014-0.155 0.032l-0.037 0.014-0.023 0.005-3.232 1.6-1.893 0.91c-0.506 0.32-0.837 0.877-0.837 1.511 0 0.985 0.798 1.783 1.783 1.783 0.303 0 0.588-0.075 0.838-0.209l-0.010 0.005 1.385-0.736 2.263-1.17 1.358-0.009-6.779 6.757c-0.306 0.299-0.496 0.716-0.496 1.177s0.19 0.878 0.495 1.177l0 0c0.302 0.302 0.719 0.488 1.179 0.488s0.878-0.187 1.179-0.488v0l1.307-1.312 1.742-1.298 0.901 0.896-1.76 1.755-1.339 1.33c-0.307 0.299-0.498 0.717-0.498 1.179s0.191 0.88 0.498 1.179l0 0c0.302 0.302 0.719 0.488 1.179 0.488s0.878-0.187 1.179-0.488v0l3.483-3.47 1.015-1.006h-0.005l0.018-0.018 5.166-5.659 3.474 0.498c0.019 0.003 0.041 0.004 0.063 0.004 0.071 0 0.139-0.015 0.201-0.042l-0.003 0.001 0.050-0.023c0.018-0.009 0.041-0.014 0.059-0.027l3.214-2.13 0.027-0.032 0.041-0.023 1.271-1.193c0.347-0.326 0.562-0.788 0.562-1.3 0-0.401-0.132-0.771-0.355-1.068l0.003 0.005zM2.13 17.769c-0.109 0.071-0.243 0.113-0.386 0.113-0.396 0-0.716-0.321-0.716-0.716 0-0.252 0.13-0.474 0.327-0.602l0.003-0.002 1.317-0.631 0.315 0.923 0.133 0.389-0.992 0.526zM5.627 15.941l-1.55 0.8-0.256-0.741-0.183-0.535 2.030-1.006-0.041 1.486zM20.727 9.326c0 0.919-0.219 1.783-0.599 2.56l-4.183-1.897c-0.042-0.576-0.341-1.074-0.78-1.386l-0.006-0.004 1.463-4.859c2.377 0.754 4.105 2.971 4.105 5.586zM8.937 9.326c0.011-3.243 2.643-5.868 5.888-5.868 0.266 0 0.528 0.018 0.784 0.052l-0.030-0.003-1.435 4.754-0.055-0.005c0 0 0 0-0 0-1.032 0-1.869 0.834-1.874 1.865v0.001c0.012 1.026 0.847 1.852 1.874 1.852 0.687 0 1.287-0.369 1.614-0.92l0.005-0.009 3.858 1.755c-1.085 1.458-2.804 2.393-4.741 2.393-3.245 0-5.878-2.624-5.893-5.866v-0.001zM14.894 10.126c0 0.446-0.361 0.807-0.807 0.807s-0.807-0.361-0.807-0.807v0c0-0.439 0.366-0.8 0.809-0.8s0.805 0.361 0.805 0.8zM2.469 25.147c-0.233 0.233-0.617 0.229-0.855 0-0.109-0.108-0.177-0.257-0.177-0.423s0.068-0.315 0.177-0.423l0.96-0.96 0.855 0.85-0.965 0.951zM5.682 28.878c-0.233 0.238-0.617 0.238-0.855 0-0.108-0.108-0.174-0.256-0.174-0.421s0.067-0.313 0.174-0.421v0l0.96-0.96 0.855 0.846-0.96 0.96zM9.166 25.413l-1.769 1.76-0.85-0.85 1.765-1.751c0.041-0.046 0.064-0.091 0.091-0.137l0.023-0.046c0.018-0.037 0.023-0.082 0.027-0.123 0-0.027 0.014-0.046 0.014-0.073 0-0.037-0.014-0.073-0.018-0.105l-0.018-0.096c-0.023-0.050-0.055-0.091-0.091-0.137l-0.027-0.041-1.609-1.6c-0.014-0.018-0.037-0.023-0.055-0.037-0.032-0.023-0.059-0.046-0.091-0.059-0.026-0.012-0.056-0.023-0.088-0.031l-0.003-0.001c-0.029-0.010-0.063-0.018-0.098-0.023l-0.003-0c-0.032 0-0.064 0-0.096 0.009-0.037 0-0.069 0.009-0.105 0.018-0.032 0.009-0.064 0.027-0.091 0.046-0.023 0.009-0.046 0.014-0.064 0.027l-1.774 1.326-0.901-0.901 2.4-2.386 4.361 4.293-0.928 0.914zM15.982 18.395h-0.046c-0.007-0-0.016-0.001-0.025-0.001-0.137 0-0.262 0.052-0.355 0.138l0-0-0.041 0.032-4.699 5.143-4.325-4.251 2.834-2.821c0.098-0.097 0.158-0.231 0.158-0.379 0-0.295-0.239-0.535-0.535-0.535-0.002 0-0.005 0-0.007 0h0l-2.217 0.014 0.027-1.609 3.104 0.027c1.263 1.296 3.026 2.099 4.977 2.099 0.455 0 0.899-0.044 1.33-0.127l-0.044 0.007c0.037 0.032 0.078 0.064 0.128 0.087l2.409 0.96 0.151 0.759 0.183 0.882-3.008-0.425zM20.023 18.574l-0.311-1.559 1.445-1.079 0.379 0.503 0.567 0.75-2.080 1.385zM23.781 15.739l-0.841 0.786-0.928-1.234 0.827-0.64c0.122-0.093 0.276-0.149 0.443-0.149 0.037 0 0.074 0.003 0.11 0.008l-0.004-0.001c0.352 0.050 0.62 0.349 0.62 0.711 0 0.206-0.087 0.392-0.226 0.523l-0 0z"></path>
<path fill="#212121" style="fill: var(--color3, #212121)" d="M13.6 18.546l-2.139-2.135c-0.097-0.096-0.23-0.156-0.377-0.156s-0.28 0.059-0.377 0.156l0-0-2.144 2.135c-0.096 0.097-0.156 0.23-0.156 0.377s0.059 0.28 0.156 0.377l-0-0 2.144 2.135c0.097 0.096 0.23 0.156 0.377 0.156s0.28-0.059 0.377-0.156l-0 0 2.139-2.135c0.096-0.097 0.156-0.23 0.156-0.377s-0.059-0.28-0.156-0.377l0 0zM11.086 20.302l-1.394-1.376 1.385-1.381 1.39 1.381-1.39 1.381zM17.166 5.074l-0.261 1.033c0.073 0.018 1.737 0.453 1.737 2.149h1.070c0-2.016-1.669-2.967-2.546-3.186zM19.712 9.326h-1.070v1.065h1.070v-1.070z"></path>
</symbol>
<symbol id="icon-diagram" viewBox="0 0 32 32">
<path fill="#2196f3" style="fill: var(--color2, #2196f3)" d="M14.926 14.967h1.065v4.795h-1.065v-4.8zM19.191 17.097h1.065v2.665h-1.065v-2.665zM10.661 18.697h1.065v1.065h-1.065v-1.065zM7.461 18.162h1.070v1.6h-1.070v-1.6z"></path>
<path fill="#212121" style="fill: var(--color3, #212121)" d="M1.6 28.293h25.586c0.884 0 1.6-0.716 1.6-1.6v0-2.135c0-0.884-0.716-1.6-1.6-1.6v0h-0.535v-13.285l3.031-2.871c0.207 0.104 0.45 0.164 0.708 0.164 0.889 0 1.609-0.72 1.609-1.609s-0.72-1.609-1.609-1.609c-0.889 0-1.609 0.72-1.609 1.609 0 0.247 0.056 0.482 0.156 0.691l-0.004-0.010-2.281 2.162v-1.23c0-0.884-0.716-1.6-1.6-1.6v0h-21.321c-0.884 0-1.6 0.716-1.6 1.6v0 15.995h-0.53c-0.884 0-1.6 0.716-1.6 1.6v0 2.13c0 0.884 0.716 1.6 1.6 1.6v0zM30.386 4.837c0.015-0.001 0.032-0.002 0.049-0.002 0.295 0 0.535 0.239 0.535 0.535s-0.239 0.535-0.535 0.535c-0.017 0-0.035-0.001-0.052-0.002l0.002 0c-0.273-0.026-0.485-0.255-0.485-0.533s0.212-0.506 0.483-0.532l0.002-0zM3.2 6.967c0-0.293 0.238-0.53 0.53-0.53h21.321c0.297 0 0.535 0.238 0.535 0.53v2.24l-1.065 1.015v-2.185c0-0.297-0.238-0.535-0.535-0.535h-19.186c-0.293 0-0.53 0.238-0.53 0.535v13.326c0 0.293 0.238 0.53 0.53 0.53h19.191c0.297 0 0.535-0.238 0.535-0.53v-9.673l1.065-1.010v12.283h-22.391v-15.995zM8 13.897c-0.004-0-0.009-0-0.013-0-0.884 0-1.6 0.716-1.6 1.6s0.716 1.6 1.6 1.6c0.434 0 0.827-0.173 1.115-0.453l-0 0 1.856 0.933c0.215 0.105 0.475 0.055 0.635-0.123l3.936-4.434 3.872 2.903c0.21 0.155 0.503 0.137 0.686-0.037l3.369-3.191v8.137h-18.126v-12.27h18.126v2.661l-3.771 3.57-3.904-2.926c-0.088-0.067-0.2-0.107-0.322-0.107-0.159 0-0.302 0.070-0.4 0.18l-0 0.001-3.991 4.494-1.495-0.75c0.014-0.064 0.018-0.128 0.023-0.192 0-0.884-0.716-1.6-1.6-1.6v0zM8.53 15.497c0 0.295-0.239 0.535-0.535 0.535s-0.535-0.239-0.535-0.535v0c0-0.295 0.239-0.535 0.535-0.535s0.535 0.239 0.535 0.535v0zM11.73 24.027h5.321v0.53c0 0.297-0.238 0.535-0.53 0.535h-4.265c-0.293 0-0.535-0.238-0.535-0.535v-0.53zM1.061 24.558c0-0.293 0.238-0.53 0.535-0.53h9.061v0.53c0 0.884 0.716 1.6 1.6 1.6v0h4.265c0.884 0 1.6-0.716 1.6-1.6v0-0.53h9.061c0.293 0 0.53 0.238 0.53 0.53v2.135c0 0.293-0.238 0.53-0.53 0.53h-25.582c-0.297 0-0.535-0.238-0.535-0.53v-2.135z"></path>
</symbol>
<symbol id="icon-clock" viewBox="0 0 32 32">
<path fill="#212121" style="fill: var(--color3, #212121)" d="M31.296 15.301c-0.001-8.452-6.853-15.303-15.305-15.303s-15.305 6.852-15.305 15.305c0 6.79 4.422 12.548 10.543 14.55l0.108 0.031c0.057 0.017 0.123 0.027 0.191 0.027 0.125 0 0.242-0.034 0.343-0.093l-0.003 0.002c0.137-0.082 0.233-0.206 0.283-0.357l3.863-12.251c1.048-0.009 1.895-0.861 1.895-1.911 0-1.055-0.856-1.911-1.911-1.911-0.3 0-0.584 0.069-0.836 0.192l0.011-0.005-5.102-5.106c-0.112-0.098-0.259-0.158-0.421-0.158-0.353 0-0.64 0.287-0.64 0.64 0 0.16 0.059 0.307 0.156 0.419l-0.001-0.001 5.106 5.111c-0.121 0.241-0.192 0.526-0.192 0.826 0 0.601 0.283 1.136 0.723 1.479l0.004 0.003-3.685 11.671c-5.408-2.035-9.186-7.165-9.186-13.177 0-7.756 6.287-14.043 14.043-14.043s14.043 6.287 14.043 14.043c0 5.688-3.381 10.586-8.243 12.793l-0.088 0.036-0.398-1.874c-0.066-0.289-0.32-0.502-0.625-0.502-0.162 0-0.31 0.060-0.423 0.159l0.001-0.001-3.84 3.429c-0.127 0.117-0.207 0.285-0.207 0.471 0 0.282 0.182 0.521 0.435 0.607l0.005 0.001 4.901 1.563c0.057 0.019 0.123 0.029 0.192 0.029 0.353 0 0.64-0.287 0.64-0.64 0-0.046-0.005-0.091-0.014-0.134l0.001 0.004-0.393-1.838c5.529-2.374 9.33-7.772 9.33-14.057 0-0.011 0-0.022-0-0.034v0.002zM15.991 14.661c0.353 0 0.64 0.287 0.64 0.64s-0.287 0.64-0.64 0.64v0c-0.353 0-0.64-0.287-0.64-0.64s0.287-0.64 0.64-0.64v0zM18.094 29.527l2.185-1.947 0.599 2.839-2.789-0.891z"></path>
<path fill="#2196f3" style="fill: var(--color2, #2196f3)" d="M15.355 3.186v1.275c-0.001 0.016-0.002 0.035-0.002 0.054 0 0.353 0.287 0.64 0.64 0.64s0.64-0.287 0.64-0.64c0-0.019-0.001-0.038-0.002-0.056l0 0.002v-1.28c0-0.353-0.287-0.64-0.64-0.64s-0.64 0.287-0.64 0.64v0zM3.877 14.665c-0.329 0.029-0.586 0.303-0.586 0.638s0.257 0.609 0.584 0.638l0.002 0h1.275c0.353 0 0.64-0.287 0.64-0.64s-0.287-0.64-0.64-0.64h-1.28zM28.11 15.941c0.353 0 0.64-0.287 0.64-0.64s-0.287-0.64-0.64-0.64h-1.28c-0.353 0-0.64 0.287-0.64 0.64s0.287 0.64 0.64 0.64h1.28z"></path>
</symbol>
<symbol id="icon-antenna" viewBox="0 0 32 32">
<path fill="#212121" style="fill: var(--color3, #212121)" d="M30.775 22.098l-8.443-8.503 0.937-4.617c0.242 0.091 0.498 0.142 0.759 0.146h0.005c0.006 0 0.014 0 0.022 0 1.192 0 2.158-0.966 2.158-2.158s-0.966-2.158-2.158-2.158c-1.192 0-2.158 0.966-2.158 2.158 0 0.259 0.046 0.507 0.129 0.737l-0.005-0.015-4.955 0.603-8.091-8.133c-0.097-0.098-0.231-0.159-0.379-0.16h-0c-0.137 0-0.274 0.055-0.37 0.155l-1.513 1.504c-0.21 0.21-0.21 0.549 0 0.754l0.814 0.823c-1.143 2.062-1.816 4.522-1.816 7.14 0 4.106 1.656 7.824 4.336 10.525l-0.001-0.001c0.046 0.046 0.091 0.073 0.146 0.101-0.032 0.183-0.050 0.366-0.050 0.549v6.185h-6.4c0 0 0 0 0 0-1.473 0-2.667 1.193-2.67 2.665v1.065c0 0.297 0.238 0.535 0.535 0.535h24.535c0.293 0 0.53-0.238 0.53-0.535v-1.065c-0.003-1.471-1.194-2.663-2.665-2.665h-6.4v-2.743c0.915 0.2 1.966 0.315 3.043 0.315 2.581 0 5.008-0.659 7.123-1.817l-0.077 0.039 0.818 0.823c0.096 0.101 0.233 0.16 0.375 0.16 0.137 0 0.274-0.059 0.375-0.155l1.509-1.509c0.21-0.206 0.21-0.544 0-0.75zM23.278 6.235c0.193-0.192 0.458-0.311 0.752-0.311 0.588 0 1.065 0.477 1.065 1.065s-0.476 1.064-1.063 1.065h-0c-0.001 0-0.001 0-0.002 0-0.588 0-1.065-0.477-1.065-1.065 0-0.297 0.122-0.566 0.318-0.759l0-0zM22.025 9.737l-0.599 2.944-1.175-1.179 1.774-1.765zM21.417 8.837l-1.92 1.906-1.486-1.49 3.406-0.416zM24.005 28.8c0.884 0 1.6 0.716 1.6 1.6v0 0.535h-23.465v-0.535c0-0.884 0.716-1.6 1.6-1.6v0h20.261zM16.539 26.665v1.070h-5.339v-1.070h5.335zM11.2 25.6v-4.055c0-1.294 1.198-2.345 2.665-2.345 1.472 0 2.67 1.051 2.67 2.345v4.055h-5.335zM17.6 23.904v-2.359c0-1.879-1.673-3.41-3.735-3.41-0.018-0-0.040-0-0.062-0-1.351 0-2.537 0.705-3.211 1.768l-0.009 0.016c-2.359-2.481-3.809-5.845-3.809-9.548 0-2.314 0.567-4.496 1.569-6.415l-0.036 0.077 18.606 18.711c-1.822 0.946-3.978 1.501-6.264 1.501-1.080 0-2.132-0.124-3.141-0.358l0.093 0.018zM28.891 23.218l-0.754-0.754-20.302-20.425 0.754-0.75 21.061 21.179-0.759 0.75z"></path>
<path fill="#2196f3" style="fill: var(--color2, #2196f3)" d="M13.874 20.265c-0.001 0-0.003 0-0.005 0-0.884 0-1.6 0.716-1.6 1.6 0 0.882 0.714 1.597 1.595 1.6h0.005c0.001 0 0.001 0 0.002 0 0.884 0 1.6-0.716 1.6-1.6s-0.715-1.599-1.598-1.6h-0zM14.249 22.245c-0.097 0.096-0.23 0.155-0.377 0.155-0.295 0-0.535-0.239-0.535-0.535s0.238-0.533 0.532-0.535h0c0.294 0.001 0.533 0.24 0.533 0.535 0 0.148-0.060 0.283-0.158 0.379l-0 0z"></path>
</symbol>
<symbol id="icon-envelope-1" viewBox="0 0 43 32">
<path d="M38.667 0h-34.667c-2.206 0-4 1.794-4 4v24c0 2.206 1.794 4 4 4h34.667c2.206 0 4-1.794 4-4v-24c0-2.206-1.794-4-4-4v0zM38.667 2.667c0.181 0 0.353 0.038 0.511 0.103l-17.844 15.466-17.844-15.466c0.158-0.066 0.33-0.103 0.511-0.103h34.667zM38.667 29.333h-34.667c-0.736 0-1.333-0.598-1.333-1.333v-22.413l17.793 15.421c0.251 0.217 0.563 0.326 0.874 0.326s0.622-0.108 0.874-0.326l17.793-15.421v22.413c0 0.736-0.598 1.333-1.333 1.333v0z"></path>
</symbol>
<symbol id="icon-smartphone-1-1" viewBox="0 0 20 32">
<path d="M17 0h-14c-1.66 0-3 1.34-3 3v26c0 1.66 1.34 3 3 3h14c1.66 0 3-1.34 3-3v-26c0-1.66-1.34-3-3-3zM3 2h14c0.56 0 1 0.44 1 1v21h-16v-21c0-0.56 0.44-1 1-1zM17 30h-14c-0.552 0-1-0.448-1-1v0-3h16v3c0 0.552-0.448 1-1 1v0z"></path>
<path d="M4.7 27.48c0.4 0.36 0.4 0.96 0 1.32-0.186 0.164-0.431 0.264-0.7 0.264s-0.514-0.1-0.701-0.265l0.001 0.001c-0.177-0.165-0.288-0.399-0.288-0.66s0.111-0.495 0.288-0.659l0.001-0.001c0.4-0.36 1-0.36 1.4 0z"></path>
</symbol>
<symbol id="icon-linkedin" viewBox="0 0 32 32">
<path  d="M32 32v-11.744c0-5.728-1.232-10.16-7.952-10.16-0.076-0.003-0.166-0.005-0.256-0.005-2.555 0-4.788 1.376-5.999 3.428l-0.018 0.032h-0.096v-2.912h-6.368v21.36h6.64v-10.576c0-2.784 0.528-5.488 3.968-5.488 3.408 0 3.456 3.184 3.456 5.664v10.4h6.624zM0.528 10.64h6.64v21.36h-6.64v-21.36zM3.84 0c-2.121 0-3.84 1.719-3.84 3.84v0c-0 0.005-0 0.010-0 0.016 0 2.127 1.715 3.854 3.838 3.872h0.002c2.128 0 3.84-1.76 3.84-3.888 0-2.121-1.719-3.84-3.84-3.84v0z"></path>
</symbol>
<symbol id="icon-facebook" viewBox="0 0 32 32">
<path d="M21.328 5.312h2.928v-5.088c-0.512-0.064-2.24-0.224-4.256-0.224-4.224 0-7.104 2.656-7.104 7.52v4.48h-4.64v5.68h4.64v14.32h5.696v-14.304h4.464l0.704-5.696h-5.168v-3.92c0-1.648 0.448-2.768 2.736-2.768z"></path>
</symbol>
<symbol id="icon-twitter" viewBox="0 0 32 32">
<path  d="M32 6.080c-1.184 0.528-2.464 0.864-3.776 1.040 1.36-0.816 2.4-2.080 2.88-3.632-1.28 0.752-2.672 1.28-4.16 1.6-1.202-1.298-2.915-2.107-4.817-2.107-3.623 0-6.56 2.937-6.56 6.56 0 0.538 0.065 1.060 0.187 1.56l-0.009-0.045c-5.462-0.281-10.265-2.883-13.477-6.83l-0.027-0.034c-0.558 0.949-0.887 2.089-0.887 3.307 0 2.26 1.134 4.255 2.865 5.446l0.022 0.014c-1.040 0-2.080-0.32-2.96-0.8v0.064c0 3.2 2.272 5.84 5.264 6.448-0.518 0.147-1.113 0.232-1.728 0.232-0.442 0-0.873-0.044-1.29-0.127l0.042 0.007c0.878 2.623 3.284 4.493 6.136 4.56l0.008 0c-2.221 1.763-5.066 2.828-8.159 2.828-0.547 0-1.087-0.033-1.617-0.098l0.064 0.006c2.826 1.846 6.286 2.944 10.003 2.944 0.022 0 0.043-0 0.065-0h-0.003c12.080 0 18.672-10 18.672-18.672 0-0.288 0-0.576-0.032-0.848 1.312-0.928 2.4-2.080 3.296-3.408z"></path>
</symbol>
<symbol id="icon-instagram" viewBox="0 0 32 32">
<path  d="M31.968 9.408c-0.024-1.403-0.292-2.735-0.763-3.968l0.027 0.080c-0.427-1.109-1.058-2.054-1.854-2.83l-0.002-0.002c-0.8-0.8-1.76-1.44-2.832-1.84-1.151-0.448-2.483-0.721-3.875-0.752l-0.013-0c-1.458-0.070-3.167-0.109-4.885-0.109-0.6 0-1.199 0.005-1.797 0.014l0.090-0.001c-4.352 0-4.896 0.016-6.592 0.096-1.712 0.064-2.88 0.352-3.888 0.736-1.072 0.416-2.032 1.040-2.832 1.856-0.816 0.8-1.44 1.76-1.856 2.832-0.443 1.152-0.711 2.485-0.736 3.877l-0 0.011c-0.070 1.458-0.109 3.167-0.109 4.885 0 0.6 0.005 1.199 0.014 1.797l-0.001-0.090c0 4.352 0 4.896 0.080 6.592 0.030 1.405 0.303 2.737 0.779 3.968l-0.027-0.080c0.4 1.072 1.040 2.032 1.856 2.832 0.8 0.816 1.76 1.44 2.832 1.856 1.008 0.384 2.176 0.656 3.872 0.736 1.712 0.080 2.24 0.096 6.592 0.096s4.896-0.016 6.608-0.096c1.397-0.026 2.724-0.294 3.952-0.763l-0.080 0.027c2.16-0.851 3.837-2.528 4.669-4.633l0.019-0.055c0.384-1.024 0.672-2.176 0.736-3.888 0.080-1.696 0.096-2.24 0.096-6.592 0-4.336 0-4.88-0.080-6.592zM29.088 22.48c-0.064 1.552-0.32 2.4-0.544 2.96-0.552 1.401-1.639 2.488-3.004 3.027l-0.036 0.013c-0.56 0.224-1.424 0.48-2.976 0.544-1.68 0.080-2.192 0.096-6.464 0.096-0.465 0.007-1.013 0.011-1.562 0.011-1.724 0-3.439-0.039-5.144-0.116l0.242 0.009c-1.568-0.064-2.4-0.32-2.96-0.544-0.722-0.271-1.337-0.68-1.839-1.199l-0.001-0.001c-0.518-0.5-0.926-1.108-1.189-1.79l-0.011-0.034c-0.336-0.884-0.535-1.905-0.544-2.972l-0-0.004c-0.068-1.463-0.107-3.179-0.107-4.903 0-0.549 0.004-1.097 0.012-1.643l-0.001 0.083c0-4.272 0.016-4.784 0.096-6.464 0.064-1.568 0.32-2.4 0.544-2.976 0.256-0.688 0.656-1.312 1.2-1.824 0.504-0.519 1.118-0.928 1.806-1.189l0.034-0.011c0.56-0.224 1.408-0.48 2.976-0.544 1.68-0.080 2.192-0.096 6.448-0.096 4.288 0 4.8 0 6.464 0.096 1.568 0.064 2.4 0.32 2.976 0.544 0.688 0.256 1.328 0.656 1.84 1.2 0.528 0.512 0.944 1.136 1.2 1.824 0.208 0.576 0.48 1.424 0.544 2.976 0.080 1.68 0.096 2.192 0.096 6.464s-0.016 4.768-0.096 6.464z"></path>
<path d="M16.064 7.776c-4.542 0-8.224 3.682-8.224 8.224s3.682 8.224 8.224 8.224v0c4.542 0 8.224-3.682 8.224-8.224s-3.682-8.224-8.224-8.224v0zM16.064 21.328c-2.943 0-5.328-2.385-5.328-5.328s2.385-5.328 5.328-5.328v0c2.943 0 5.328 2.385 5.328 5.328s-2.385 5.328-5.328 5.328v0zM26.528 7.456c0 1.060-0.86 1.92-1.92 1.92s-1.92-0.86-1.92-1.92v0c0-1.060 0.86-1.92 1.92-1.92s1.92 0.86 1.92 1.92v0z"></path>
<symbol id="icon-close-black" viewBox="0 0 32 32">
<path d="M26.667 7.289l-1.956-1.956-7.822 7.822-7.822-7.822-1.956 1.956 7.822 7.822-7.822 7.822 1.956 1.956 7.822-7.822 7.822 7.822 1.956-1.956-7.822-7.822 7.822-7.822z"></path>
</symbol>
</symbol>
<symbol id="icon-Check" viewBox="0 0 32 32">
<path stroke-linejoin="miter" stroke-linecap="butt" stroke-miterlimit="4" stroke-width="0.4923" d="M4.825 15.385l-0.172-0.148-0.172 0.148-2.191 2.068-0.197 0.172 0.197 0.197 8.788 8.369 0.148-0.172 18.658-17.797-0.172-0.172-2.166-2.068-0.172-0.172-0.172 0.172-16.123 15.36-6.252-5.957z"></path>
</symbol>
<symbol id="icon-person" viewBox="0 0 32 32">
<path d="M16 16c2.946 0 5.333-2.388 5.333-5.333s-2.388-5.333-5.333-5.333v0c-2.946 0-5.333 2.388-5.333 5.333s2.388 5.333 5.333 5.333v0zM16 18.667c-3.556 0-10.667 1.778-10.667 5.333v1.333c0 0.729 0.604 1.333 1.333 1.333h18.667c0.729 0 1.333-0.604 1.333-1.333v-1.333c0-3.556-7.111-5.333-10.667-5.333z"></path>
</symbol>
<symbol id="icon-phone" viewBox="0 0 32 32">
<path d="M24.889 19.769l-3.271-0.356c-0.782-0.107-1.564 0.178-2.116 0.711l-2.364 2.382c-3.67-1.894-6.586-4.81-8.429-8.372l-0.051-0.108 2.382-2.382c0.551-0.551 0.818-1.333 0.729-2.116l-0.356-3.236c-0.156-1.288-1.243-2.276-2.56-2.276-0.006 0-0.012 0-0.019 0h-2.221c-1.458 0-2.667 1.209-2.578 2.667 0.716 10.991 9.453 19.729 20.38 20.441l0.065 0.003c1.458 0.089 2.667-1.12 2.667-2.578v-2.222c0-1.316-0.96-2.4-2.258-2.56z"></path>
</symbol>
<symbol id="icon-email" viewBox="0 0 32 32">
<path d="M26.667 5.333h-21.333c-1.476 0-2.667 1.191-2.667 2.667v16c0 1.458 1.191 2.667 2.667 2.667h21.333c1.458 0 2.667-1.209 2.667-2.667v-16c0-1.476-1.209-2.667-2.667-2.667zM26.133 11.004l-9.422 5.884c-0.202 0.127-0.448 0.202-0.711 0.202s-0.509-0.075-0.717-0.206l0.006 0.003-9.422-5.867c-0.364-0.195-0.607-0.572-0.607-1.006 0-0.628 0.509-1.138 1.138-1.138 0.255 0 0.491 0.084 0.681 0.226l-0.003-0.002 8.924 5.564 8.942-5.582c0.193-0.155 0.441-0.249 0.71-0.249 0.628 0 1.138 0.509 1.138 1.138 0 0.454-0.266 0.846-0.65 1.028l-0.007 0.003z"></path>
</symbol>
<symbol id="icon-icon-send" viewBox="0 0 32 32">
<path fill="#fff" style="fill: var(--color1, #fff)" d="M32 0l-32 18 10.227 3.787 15.773-14.787-12 16.187v8.813l5.733-6.693 7.267 2.693 5-28z"></path>
</symbol>
<symbol id="icon-close" viewBox="0 0 32 32">
<path d="M26.667 7.289l-1.956-1.956-7.822 7.822-7.822-7.822-1.956 1.956 7.822 7.822-7.822 7.822 1.956 1.956 7.822-7.822 7.822 7.822 1.956-1.956-7.822-7.822 7.822-7.822z"></path>
</symbol>
</defs>
</svg>
